<svg viewBox="0 0 500 500" fill="none" xmlns="http://www.w3.org/2000/svg">
  <rect width="500" height="500" fill="#ffffff" />
  <g fill="#0f172a">
    <path d="M 65 50 L 125 50 L 125 350 L 65 350 Z" />
    <path d="M 375 50 L 435 50 L 435 350 L 375 350 Z" />
    <path d="M 65 350 L 435 350 L 435 390 L 65 390 Z" />
    <polygon points="250,75 295,145 205,145" />
    <polygon points="65,50 135,50 250,230 250,290 180,290 65,115" />
    <polygon points="435,50 365,50 250,230 250,290 320,290 435,115" />
    <polygon points="250,155 315,225 250,295 185,225" fill="none" stroke="#0f172a" stroke-width="24" stroke-linejoin="miter" />
    <polygon points="215,350 285,350 250,305" />
    <polygon points="250,295 210,345 250,345" opacity="0.4" />
    <polygon points="185,225 155,275 195,275" opacity="0.3" />
  </g>
  <text
    x="250"
    y="465"
    text-anchor="middle"
    fill="#0f172a"
    font-family="system-ui, -apple-system, BlinkMacSystemFont, 'Segoe UI', Roboto, sans-serif"
    font-weight="900"
    font-size="52"
    letter-spacing="0.18em"
  >
    SMART LAB
  </text>
</svg>
